<svg xmlns="http://www.w3.org/2000/svg" style="display: none;">
    <symbol id="home-icon" viewBox="0 0 24 24">
        <path d="M10 19v-5h4v5c0 .55.45 1 1 1h3c.55 0 1-.45 1-1v-7h1.7c.46 0 .68-.57.33-.87L12.67 3.6c-.38-.34-.96-.34-1.34 0l-8.36 7.53c-.34.3-.13.87.33.87H5v7c0 .55.45 1 1 1h3c.55 0 1-.45 1-1z"></path>
    </symbol>
    <symbol id="arrow-icon" viewBox="0 0 24 24">
        <path d="M14.56 5l.1598.0071c.5285.0472 1.0111.3265 1.3202.7629l4.04 5.65c.25.35.25.81.01 1.16l-4.04 5.65c-.34.48-.9.77-1.49.77l-.1469-.0055c-1.3992-.106-2.1841-1.7148-1.3431-2.8845L16 12l-2.93-4.11c-.86-1.21 0-2.89 1.49-2.89zm-7 0l.1598.0071c.5285.0472 1.012.3265 1.3302.7629l4.03 5.65c.25.35.25.81.01 1.16l-4.04 5.65c-.34.48-.9.77-1.49.77l-.1469-.0055C6.014 18.8885 5.229 17.2797 6.07 16.11L9 12 6.07 7.89C5.2 6.68 6.07 5 7.56 5z"></path>
    </symbol>
    <symbol id="logout-icon" viewBox="0 0 24 24">
        <path d="M11 3c.55 0 1 .45 1 1l-.0068.1162C11.9352 4.612 11.5107 5 11 5H5v14h6c.55 0 1 .45 1 1l-.0068.1162C11.9352 20.612 11.5107 21 11 21H5c-1.1 0-2-.9-2-2V5c0-1.1.9-2 2-2zm6 6.21c0-.45.54-.67.86-.35l2.79 2.79c.19.19.19.51-.01.7l-2.79 2.79c-.31.32-.85.1-.85-.35V13h-7c-.55 0-1-.45-1-1l.0068-.1162C9.0648 11.388 9.4893 11 10 11h7z"></path>
    </symbol>
    <symbol id="course-icon" viewBox="0 0 24 24">
        <path d="M8.25 5C7.83579 5 7.5 5.33579 7.5 5.75V9.75C7.5 10.1642 7.83579 10.5 8.25 10.5H15.75C16.1642 10.5 16.5 10.1642 16.5 9.75V5.75C16.5 5.33579 16.1642 5 15.75 5H8.25ZM9 9V6.5H15V9H9Z" fill="currentColor"/>
        <path d="M6.75 2C5.50736 2 4.5 3.00736 4.5 4.25V19C4.5 20.6569 5.84315 22 7.5 22H18.75C19.1642 22 19.5 21.6642 19.5 21.25C19.5 20.8358 19.1642 20.5 18.75 20.5H18V17.5H18.75C19.1642 17.5 19.5 17.1642 19.5 16.75V4.25C19.5 3.00736 18.4926 2 17.25 2H6.75ZM18 16V4.25C18 3.83579 17.6642 3.5 17.25 3.5H6.75C6.33579 3.5 6 3.83579 6 4.25V16.4013C6.44126 16.1461 6.95357 16 7.5 16H18ZM16.5 17.5V20.5H7.5C6.67157 20.5 6 19.8284 6 19C6 18.1716 6.67157 17.5 7.5 17.5H16.5Z" fill="currentColor"/>
    </symbol>
    <symbol id="class-icon" viewBox="0 0 24 24">
        <path class="st0" transform="scale(0.047)" d="M81.44,116.972c23.206,0,42.007-18.817,42.007-42.008c0-23.215-18.801-42.016-42.007-42.016 c-23.216,0-42.016,18.801-42.016,42.016C39.424,98.155,58.224,116.972,81.44,116.972z"/>
        <path class="st0" transform="scale(0.047)" d="M224.166,245.037c0-0.856-0.142-1.673-0.251-2.498l62.748-45.541c3.942-2.867,4.83-8.411,1.963-12.362 c-1.664-2.285-4.342-3.652-7.17-3.652c-1.877,0-3.667,0.589-5.191,1.689l-62.874,45.636c-2.341-1.068-4.909-1.704-7.65-1.704 h-34.178l-8.294-47.222c-4.555-23.811-14.112-42.51-34.468-42.51h-86.3C22.146,136.873,0,159.019,0,179.383v141.203 c0,10.178,8.246,18.432,18.424,18.432c5.011,0,0,0,12.864,0l7.005,120.424c0,10.83,8.788,19.61,19.618,19.61 c8.12,0,28.398,0,39.228,0c10.83,0,19.61-8.78,19.61-19.61l9.204-238.53h0.463l5.27,23.269c1.744,11.097,11.293,19.28,22.524,19.28 h51.534C215.92,263.461,224.166,255.215,224.166,245.037z M68.026,218.861v-67.123h24.126v67.123l-12.817,15.118L68.026,218.861z"/>
        <polygon class="st0" transform="scale(0.047)" points="190.326,47.47 190.326,200.869 214.452,200.869 214.452,71.595 487.874,71.595 487.874,302.131 214.452,302.131 214.452,273.113 190.326,273.113 190.326,326.256 512,326.256 512,47.47 "/>
        <path class="st0" transform="scale(0.047)" d="M311.81,388.597c0-18.801-15.235-34.029-34.028-34.029c-18.801,0-34.036,15.228-34.036,34.029 c0,18.785,15.235,34.028,34.036,34.028C296.574,422.625,311.81,407.381,311.81,388.597z"/>
        <path class="st0" transform="scale(0.047)" d="M277.781,440.853c-24.259,0-44.866,15.919-52.782,38.199h105.565 C322.648,456.771,302.04,440.853,277.781,440.853z"/>
        <path class="st0" transform="scale(0.047)" d="M458.573,388.597c0-18.801-15.235-34.029-34.028-34.029c-18.801,0-34.036,15.228-34.036,34.029 c0,18.785,15.235,34.028,34.036,34.028C443.338,422.625,458.573,407.381,458.573,388.597z"/>
        <path class="st0" transform="scale(0.047)" d="M424.545,440.853c-24.259,0-44.866,15.919-52.783,38.199h105.565 C469.411,456.771,448.804,440.853,424.545,440.853z"/>
    </symbol>
        
    <!-- Edit Icon in Class Dashboard-->
    <symbol id="edit-icon" viewBox="0 0 24 24">
        <path fill-rule="evenodd" clip-rule="evenodd" d="M19.3028 3.7801C18.4241 2.90142 16.9995 2.90142 16.1208 3.7801L14.3498 5.5511C14.3442 5.55633 14.3387 5.56166 14.3333 5.5671C14.3279 5.57253 14.3225 5.57803 14.3173 5.58359L5.83373 14.0672C5.57259 14.3283 5.37974 14.6497 5.27221 15.003L4.05205 19.0121C3.9714 19.2771 4.04336 19.565 4.23922 19.7608C4.43508 19.9567 4.72294 20.0287 4.98792 19.948L8.99703 18.7279C9.35035 18.6203 9.67176 18.4275 9.93291 18.1663L20.22 7.87928C21.0986 7.0006 21.0986 5.57598 20.22 4.6973L19.3028 3.7801ZM14.8639 7.15833L6.89439 15.1278C6.80735 15.2149 6.74306 15.322 6.70722 15.4398L5.8965 18.1036L8.56029 17.2928C8.67806 17.257 8.7852 17.1927 8.87225 17.1057L16.8417 9.13619L14.8639 7.15833ZM17.9024 8.07553L19.1593 6.81862C19.4522 6.52572 19.4522 6.05085 19.1593 5.75796L18.2421 4.84076C17.9492 4.54787 17.4743 4.54787 17.1814 4.84076L15.9245 6.09767L17.9024 8.07553Z"/>
    </symbol>

    <!-- Green Checkmark Icon in Courses Sidebar-->
    <symbol id="checkmark-icon" viewBox="0 0 24 24">
        <path d="M15.5071 10.5245C15.8 10.2316 15.8 9.75674 15.5071 9.46384C15.2142 9.17095 14.7393 9.17095 14.4464 9.46384L10.9649 12.9454L9.55359 11.5341C9.2607 11.2412 8.78582 11.2412 8.49293 11.5341C8.20004 11.827 8.20004 12.3019 8.49294 12.5947L10.4346 14.5364C10.7275 14.8293 11.2023 14.8292 11.4952 14.5364L15.5071 10.5245Z"/>
        <path fill-rule="evenodd" clip-rule="evenodd" d="M12 2C6.47715 2 2 6.47715 2 12C2 17.5228 6.47715 22 12 22C17.5228 22 22 17.5228 22 12C22 6.47715 17.5228 2 12 2ZM3.5 12C3.5 7.30558 7.30558 3.5 12 3.5C16.6944 3.5 20.5 7.30558 20.5 12C20.5 16.6944 16.6944 20.5 12 20.5C7.30558 20.5 3.5 16.6944 3.5 12Z"/>
    </symbol>
</svg>