<svg xmlns="http://www.w3.org/2000/svg" style="display: none;">
    <symbol id="home-icon" viewBox="0 0 24 24">
        <path d="M10 19v-5h4v5c0 .55.45 1 1 1h3c.55 0 1-.45 1-1v-7h1.7c.46 0 .68-.57.33-.87L12.67 3.6c-.38-.34-.96-.34-1.34 0l-8.36 7.53c-.34.3-.13.87.33.87H5v7c0 .55.45 1 1 1h3c.55 0 1-.45 1-1z"></path>
    </symbol>
    <symbol id="arrow-icon" viewBox="0 0 24 24">
        <path d="M14.56 5l.1598.0071c.5285.0472 1.0111.3265 1.3202.7629l4.04 5.65c.25.35.25.81.01 1.16l-4.04 5.65c-.34.48-.9.77-1.49.77l-.1469-.0055c-1.3992-.106-2.1841-1.7148-1.3431-2.8845L16 12l-2.93-4.11c-.86-1.21 0-2.89 1.49-2.89zm-7 0l.1598.0071c.5285.0472 1.012.3265 1.3302.7629l4.03 5.65c.25.35.25.81.01 1.16l-4.04 5.65c-.34.48-.9.77-1.49.77l-.1469-.0055C6.014 18.8885 5.229 17.2797 6.07 16.11L9 12 6.07 7.89C5.2 6.68 6.07 5 7.56 5z"></path>
    </symbol>
    <symbol id="logout-icon" viewBox="0 0 24 24">
        <path d="M11 3c.55 0 1 .45 1 1l-.0068.1162C11.9352 4.612 11.5107 5 11 5H5v14h6c.55 0 1 .45 1 1l-.0068.1162C11.9352 20.612 11.5107 21 11 21H5c-1.1 0-2-.9-2-2V5c0-1.1.9-2 2-2zm6 6.21c0-.45.54-.67.86-.35l2.79 2.79c.19.19.19.51-.01.7l-2.79 2.79c-.31.32-.85.1-.85-.35V13h-7c-.55 0-1-.45-1-1l.0068-.1162C9.0648 11.388 9.4893 11 10 11h7z"></path>
    </symbol>
    <symbol id="course-icon" viewBox="0 0 24 24">
        <path d="M8.25 5C7.83579 5 7.5 5.33579 7.5 5.75V9.75C7.5 10.1642 7.83579 10.5 8.25 10.5H15.75C16.1642 10.5 16.5 10.1642 16.5 9.75V5.75C16.5 5.33579 16.1642 5 15.75 5H8.25ZM9 9V6.5H15V9H9Z" fill="currentColor"/>
        <path d="M6.75 2C5.50736 2 4.5 3.00736 4.5 4.25V19C4.5 20.6569 5.84315 22 7.5 22H18.75C19.1642 22 19.5 21.6642 19.5 21.25C19.5 20.8358 19.1642 20.5 18.75 20.5H18V17.5H18.75C19.1642 17.5 19.5 17.1642 19.5 16.75V4.25C19.5 3.00736 18.4926 2 17.25 2H6.75ZM18 16V4.25C18 3.83579 17.6642 3.5 17.25 3.5H6.75C6.33579 3.5 6 3.83579 6 4.25V16.4013C6.44126 16.1461 6.95357 16 7.5 16H18ZM16.5 17.5V20.5H7.5C6.67157 20.5 6 19.8284 6 19C6 18.1716 6.67157 17.5 7.5 17.5H16.5Z" fill="currentColor"/>
    </symbol>
    <symbol id="class-icon" viewBox="0 0 24 24">
        <path class="st0" transform="scale(0.047)" d="M81.44,116.972c23.206,0,42.007-18.817,42.007-42.008c0-23.215-18.801-42.016-42.007-42.016 c-23.216,0-42.016,18.801-42.016,42.016C39.424,98.155,58.224,116.972,81.44,116.972z"/>
        <path class="st0" transform="scale(0.047)" d="M224.166,245.037c0-0.856-0.142-1.673-0.251-2.498l62.748-45.541c3.942-2.867,4.83-8.411,1.963-12.362 c-1.664-2.285-4.342-3.652-7.17-3.652c-1.877,0-3.667,0.589-5.191,1.689l-62.874,45.636c-2.341-1.068-4.909-1.704-7.65-1.704 h-34.178l-8.294-47.222c-4.555-23.811-14.112-42.51-34.468-42.51h-86.3C22.146,136.873,0,159.019,0,179.383v141.203 c0,10.178,8.246,18.432,18.424,18.432c5.011,0,0,0,12.864,0l7.005,120.424c0,10.83,8.788,19.61,19.618,19.61 c8.12,0,28.398,0,39.228,0c10.83,0,19.61-8.78,19.61-19.61l9.204-238.53h0.463l5.27,23.269c1.744,11.097,11.293,19.28,22.524,19.28 h51.534C215.92,263.461,224.166,255.215,224.166,245.037z M68.026,218.861v-67.123h24.126v67.123l-12.817,15.118L68.026,218.861z"/>
        <polygon class="st0" transform="scale(0.047)" points="190.326,47.47 190.326,200.869 214.452,200.869 214.452,71.595 487.874,71.595 487.874,302.131 214.452,302.131 214.452,273.113 190.326,273.113 190.326,326.256 512,326.256 512,47.47 "/>
        <path class="st0" transform="scale(0.047)" d="M311.81,388.597c0-18.801-15.235-34.029-34.028-34.029c-18.801,0-34.036,15.228-34.036,34.029 c0,18.785,15.235,34.028,34.036,34.028C296.574,422.625,311.81,407.381,311.81,388.597z"/>
        <path class="st0" transform="scale(0.047)" d="M277.781,440.853c-24.259,0-44.866,15.919-52.782,38.199h105.565 C322.648,456.771,302.04,440.853,277.781,440.853z"/>
        <path class="st0" transform="scale(0.047)" d="M458.573,388.597c0-18.801-15.235-34.029-34.028-34.029c-18.801,0-34.036,15.228-34.036,34.029 c0,18.785,15.235,34.028,34.036,34.028C443.338,422.625,458.573,407.381,458.573,388.597z"/>
        <path class="st0" transform="scale(0.047)" d="M424.545,440.853c-24.259,0-44.866,15.919-52.783,38.199h105.565 C469.411,456.771,448.804,440.853,424.545,440.853z"/>
    </symbol>

    <symbol id="gear-icon" viewBox="0 0 24 24">
        <path d="M11.9992 8.7743C9.88118 8.7743 8.16419 10.4913 8.16419 12.6093C8.16419 14.7273 9.88118 16.4443 11.9992 16.4443C14.1172 16.4443 15.8342 14.7273 15.8342 12.6093C15.8342 10.4913 14.1172 8.7743 11.9992 8.7743ZM9.66419 12.6093C9.66419 11.3197 10.7096 10.2743 11.9992 10.2743C13.2888 10.2743 14.3342 11.3197 14.3342 12.6093C14.3342 13.8989 13.2888 14.9443 11.9992 14.9443C10.7096 14.9443 9.66419 13.8989 9.66419 12.6093Z"/>
        <path d="M2.5809 8.9224C1.96404 9.99083 2.33012 11.357 3.39854 11.9739C3.88777 12.2563 3.88776 12.9625 3.39856 13.2449C2.33013 13.8618 1.96407 15.2279 2.58092 16.2964L4.09692 18.9222C4.71391 19.9908 6.08044 20.3568 7.14896 19.7399C7.63844 19.4573 8.25011 19.8106 8.25011 20.3754C8.25011 21.6092 9.2503 22.6094 10.4841 22.6094H13.5165C14.7502 22.6094 15.7501 21.6091 15.7501 20.3756C15.7501 19.8108 16.3615 19.458 16.8503 19.7402C17.9185 20.357 19.2845 19.991 19.9012 18.9227L21.4176 16.2963C22.0344 15.2279 21.6684 13.8617 20.6 13.2449C20.1108 12.9624 20.1108 12.2563 20.6 11.9739C21.6684 11.3571 22.0345 9.99089 21.4176 8.92247L19.9012 6.29604C19.2845 5.2278 17.9185 4.86179 16.8503 5.47854C16.3615 5.76076 15.7501 5.40794 15.7501 4.84314C15.7501 3.60961 14.7502 2.60938 13.5165 2.60938H10.4841C9.2503 2.60938 8.25011 3.60957 8.25011 4.84337C8.25011 5.40822 7.63842 5.76152 7.14894 5.47892C6.08042 4.86201 4.71388 5.22797 4.09689 6.29663L2.5809 8.9224ZM4.14854 10.6748C3.79755 10.4722 3.6773 10.0234 3.87994 9.6724L5.39593 7.04663C5.59863 6.69554 6.04772 6.57518 6.39894 6.77796C7.88811 7.63773 9.75011 6.56327 9.75011 4.84337C9.75011 4.43799 10.0787 4.10937 10.4841 4.10937L13.5165 4.10937C13.9216 4.10937 14.2501 4.43788 14.2501 4.84314C14.2501 6.56227 16.1112 7.63733 17.6003 6.77758C17.9511 6.57504 18.3997 6.69524 18.6022 7.04604L20.1186 9.67247C20.3212 10.0234 20.201 10.4722 19.85 10.6749C18.3608 11.5346 18.3608 13.6841 19.85 14.5439C20.2009 14.7465 20.3212 15.1953 20.1186 15.5463L18.6022 18.1727C18.3996 18.5235 17.9511 18.6437 17.6003 18.4412C16.1112 17.5815 14.2501 18.6565 14.2501 20.3756C14.2501 20.7809 13.9216 21.1094 13.5165 21.1094H10.4841C10.0787 21.1094 9.75011 20.7808 9.75011 20.3754C9.75011 18.6555 7.88812 17.5811 6.39896 18.4408C6.04774 18.6436 5.59866 18.5232 5.39596 18.1722L3.87996 15.5464C3.67732 15.1954 3.79757 14.7466 4.14856 14.5439C5.63778 13.6841 5.63775 11.5346 4.14854 10.6748Z"/>
    </symbol>

        
    <!-- Edit Icon in Class Dashboard-->
    <symbol id="edit-icon" viewBox="0 0 24 24">
        <path fill-rule="evenodd" clip-rule="evenodd" d="M19.3028 3.7801C18.4241 2.90142 16.9995 2.90142 16.1208 3.7801L14.3498 5.5511C14.3442 5.55633 14.3387 5.56166 14.3333 5.5671C14.3279 5.57253 14.3225 5.57803 14.3173 5.58359L5.83373 14.0672C5.57259 14.3283 5.37974 14.6497 5.27221 15.003L4.05205 19.0121C3.9714 19.2771 4.04336 19.565 4.23922 19.7608C4.43508 19.9567 4.72294 20.0287 4.98792 19.948L8.99703 18.7279C9.35035 18.6203 9.67176 18.4275 9.93291 18.1663L20.22 7.87928C21.0986 7.0006 21.0986 5.57598 20.22 4.6973L19.3028 3.7801ZM14.8639 7.15833L6.89439 15.1278C6.80735 15.2149 6.74306 15.322 6.70722 15.4398L5.8965 18.1036L8.56029 17.2928C8.67806 17.257 8.7852 17.1927 8.87225 17.1057L16.8417 9.13619L14.8639 7.15833ZM17.9024 8.07553L19.1593 6.81862C19.4522 6.52572 19.4522 6.05085 19.1593 5.75796L18.2421 4.84076C17.9492 4.54787 17.4743 4.54787 17.1814 4.84076L15.9245 6.09767L17.9024 8.07553Z"/>
    </symbol>

    <!-- Green Checkmark Icon in Courses Sidebar-->
    <symbol id="checkmark-icon" viewBox="0 0 24 24">
        <path d="M15.5071 10.5245C15.8 10.2316 15.8 9.75674 15.5071 9.46384C15.2142 9.17095 14.7393 9.17095 14.4464 9.46384L10.9649 12.9454L9.55359 11.5341C9.2607 11.2412 8.78582 11.2412 8.49293 11.5341C8.20004 11.827 8.20004 12.3019 8.49294 12.5947L10.4346 14.5364C10.7275 14.8293 11.2023 14.8292 11.4952 14.5364L15.5071 10.5245Z"/>
        <path fill-rule="evenodd" clip-rule="evenodd" d="M12 2C6.47715 2 2 6.47715 2 12C2 17.5228 6.47715 22 12 22C17.5228 22 22 17.5228 22 12C22 6.47715 17.5228 2 12 2ZM3.5 12C3.5 7.30558 7.30558 3.5 12 3.5C16.6944 3.5 20.5 7.30558 20.5 12C20.5 16.6944 16.6944 20.5 12 20.5C7.30558 20.5 3.5 16.6944 3.5 12Z"/>
    </symbol>

    <symbol id="student-icon" viewBox="0 0 32 32">
        <ellipse cx="13.828" cy="7.241" rx="5.559" ry="5.447"/>
        <path d="M29.068,3.646c-1.471-0.064-2.721,1.096-2.775,2.573c-0.135,3.576-0.973,6.051-2.424,7.158
            c-0.37,0.283-0.762,0.45-1.134,0.555c-0.985-0.821-2.24-1.26-3.112-1.26h-5.794H8.035c-2.144,0-3.883,2.254-3.883,4.621v7.204
            h19.146v-4.634c0.141-0.219,0.27-0.436,0.375-0.645c1.053-0.229,2.209-0.68,3.32-1.502c2.876-2.121,4.438-5.923,4.645-11.299
            C31.695,4.943,30.544,3.702,29.068,3.646z"/>
    </symbol>

</svg>

