<svg xmlns="http://www.w3.org/2000/svg" style="display: none;">
    <symbol id="home-icon" viewBox="0 0 24 24">
        <path d="M10 19v-5h4v5c0 .55.45 1 1 1h3c.55 0 1-.45 1-1v-7h1.7c.46 0 .68-.57.33-.87L12.67 3.6c-.38-.34-.96-.34-1.34 0l-8.36 7.53c-.34.3-.13.87.33.87H5v7c0 .55.45 1 1 1h3c.55 0 1-.45 1-1z"></path>
    </symbol>
    <symbol id="arrow-icon" viewBox="0 0 24 24">
        <path d="M14.56 5l.1598.0071c.5285.0472 1.0111.3265 1.3202.7629l4.04 5.65c.25.35.25.81.01 1.16l-4.04 5.65c-.34.48-.9.77-1.49.77l-.1469-.0055c-1.3992-.106-2.1841-1.7148-1.3431-2.8845L16 12l-2.93-4.11c-.86-1.21 0-2.89 1.49-2.89zm-7 0l.1598.0071c.5285.0472 1.012.3265 1.3302.7629l4.03 5.65c.25.35.25.81.01 1.16l-4.04 5.65c-.34.48-.9.77-1.49.77l-.1469-.0055C6.014 18.8885 5.229 17.2797 6.07 16.11L9 12 6.07 7.89C5.2 6.68 6.07 5 7.56 5z"></path>
    </symbol>
    <symbol id="logout-icon" viewBox="0 0 24 24">
        <path d="M11 3c.55 0 1 .45 1 1l-.0068.1162C11.9352 4.612 11.5107 5 11 5H5v14h6c.55 0 1 .45 1 1l-.0068.1162C11.9352 20.612 11.5107 21 11 21H5c-1.1 0-2-.9-2-2V5c0-1.1.9-2 2-2zm6 6.21c0-.45.54-.67.86-.35l2.79 2.79c.19.19.19.51-.01.7l-2.79 2.79c-.31.32-.85.1-.85-.35V13h-7c-.55 0-1-.45-1-1l.0068-.1162C9.0648 11.388 9.4893 11 10 11h7z"></path>
    </symbol>
    <symbol id="course-icon" viewBox="0 0 24 24">
        <path d="M8.25 5C7.83579 5 7.5 5.33579 7.5 5.75V9.75C7.5 10.1642 7.83579 10.5 8.25 10.5H15.75C16.1642 10.5 16.5 10.1642 16.5 9.75V5.75C16.5 5.33579 16.1642 5 15.75 5H8.25ZM9 9V6.5H15V9H9Z" fill="#343C54"/>
        <path d="M6.75 2C5.50736 2 4.5 3.00736 4.5 4.25V19C4.5 20.6569 5.84315 22 7.5 22H18.75C19.1642 22 19.5 21.6642 19.5 21.25C19.5 20.8358 19.1642 20.5 18.75 20.5H18V17.5H18.75C19.1642 17.5 19.5 17.1642 19.5 16.75V4.25C19.5 3.00736 18.4926 2 17.25 2H6.75ZM18 16V4.25C18 3.83579 17.6642 3.5 17.25 3.5H6.75C6.33579 3.5 6 3.83579 6 4.25V16.4013C6.44126 16.1461 6.95357 16 7.5 16H18ZM16.5 17.5V20.5H7.5C6.67157 20.5 6 19.8284 6 19C6 18.1716 6.67157 17.5 7.5 17.5H16.5Z" fill="#343C54"/>
    </symbol>
</svg>