<svg xmlns="http://www.w3.org/2000/svg" style="display: none;">
    <symbol id="multiple-users-icon" viewBox="0 0 24 24">
        <rect x="0" fill="none" width="24" height="24"/>
        <g>
            <path d="M24 14.6c0 .6-1.2 1-2.6 1.2-.9-1.7-2.7-3-4.8-3.9.2-.3.4-.5.6-.8h.8c3.1-.1 6 1.8 6 3.5zM6.8 11H6c-3.1 0-6 1.9-6 3.6 0 .6 1.2 1 2.6 1.2.9-1.7 2.7-3 4.8-3.9l-.6-.9zm5.2 1c2.2 0 4-1.8 4-4s-1.8-4-4-4-4 1.8-4 4 1.8 4 4 4zm0 1c-4.1 0-8 2.6-8 5 0 2 8 2 8 2s8 0 8-2c0-2.4-3.9-5-8-5zm5.7-3h.3c1.7 0 3-1.3 3-3s-1.3-3-3-3c-.5 0-.9.1-1.3.3.8 1 1.3 2.3 1.3 3.7 0 .7-.1 1.4-.3 2zM6 10h.3C6.1 9.4 6 8.7 6 8c0-1.4.5-2.7 1.3-3.7C6.9 4.1 6.5 4 6 4 4.3 4 3 5.3 3 7s1.3 3 3 3z"/>
        </g>
    </symbol>
    <symbol id="envelope-icon" viewBox="0 0 24 24">
        <path d="M22,5V9L12,13,2,9V5A1,1,0,0,1,3,4H21A1,1,0,0,1,22,5ZM2,11.154V19a1,1,0,0,0,1,1H21a1,1,0,0,0,1-1V11.154l-10,4Z"/>
    </symbol>
    <symbol id="bell-icon" viewBox="0 0 24 24">
        <path d="M11.7258 7.34056C12.1397 7.32632 12.4638 6.97919 12.4495 6.56522C12.4353 6.15125 12.0882 5.8272 11.6742 5.84144L11.7258 7.34056ZM7.15843 11.562L6.40879 11.585C6.40906 11.5938 6.40948 11.6026 6.41006 11.6114L7.15843 11.562ZM5.87826 14.979L6.36787 15.5471C6.38128 15.5356 6.39428 15.5236 6.40684 15.5111L5.87826 14.979ZM5.43951 15.342L5.88007 15.949C5.89245 15.94 5.90455 15.9306 5.91636 15.9209L5.43951 15.342ZM9.74998 17.75C10.1642 17.75 10.5 17.4142 10.5 17C10.5 16.5858 10.1642 16.25 9.74998 16.25V17.75ZM11.7258 5.84144C11.3118 5.8272 10.9647 6.15125 10.9504 6.56522C10.9362 6.97919 11.2602 7.32632 11.6742 7.34056L11.7258 5.84144ZM16.2415 11.562L16.9899 11.6113C16.9905 11.6025 16.9909 11.5938 16.9912 11.585L16.2415 11.562ZM17.5217 14.978L16.9931 15.5101C17.0057 15.5225 17.0187 15.5346 17.0321 15.5461L17.5217 14.978ZM17.9605 15.341L17.4836 15.9199C17.4952 15.9294 17.507 15.9386 17.5191 15.9474L17.9605 15.341ZM13.65 16.25C13.2358 16.25 12.9 16.5858 12.9 17C12.9 17.4142 13.2358 17.75 13.65 17.75V16.25ZM10.95 6.591C10.95 7.00521 11.2858 7.341 11.7 7.341C12.1142 7.341 12.45 7.00521 12.45 6.591H10.95ZM12.45 5C12.45 4.58579 12.1142 4.25 11.7 4.25C11.2858 4.25 10.95 4.58579 10.95 5H12.45ZM9.74998 16.25C9.33577 16.25 8.99998 16.5858 8.99998 17C8.99998 17.4142 9.33577 17.75 9.74998 17.75V16.25ZM13.65 17.75C14.0642 17.75 14.4 17.4142 14.4 17C14.4 16.5858 14.0642 16.25 13.65 16.25V17.75ZM10.5 17C10.5 16.5858 10.1642 16.25 9.74998 16.25C9.33577 16.25 8.99998 16.5858 8.99998 17H10.5ZM14.4 17C14.4 16.5858 14.0642 16.25 13.65 16.25C13.2358 16.25 12.9 16.5858 12.9 17H14.4ZM11.6742 5.84144C8.65236 5.94538 6.31509 8.53201 6.40879 11.585L7.90808 11.539C7.83863 9.27613 9.56498 7.41488 11.7258 7.34056L11.6742 5.84144ZM6.41006 11.6114C6.48029 12.6748 6.08967 13.7118 5.34968 14.4469L6.40684 15.5111C7.45921 14.4656 8.00521 13.0026 7.9068 11.5126L6.41006 11.6114ZM5.38865 14.4109C5.23196 14.5459 5.10026 14.6498 4.96265 14.7631L5.91636 15.9209C6.0264 15.8302 6.195 15.6961 6.36787 15.5471L5.38865 14.4109ZM4.99895 14.735C4.77969 14.8942 4.58045 15.1216 4.43193 15.3617C4.28525 15.5987 4.14491 15.9178 4.12693 16.2708C4.10726 16.6569 4.24026 17.0863 4.63537 17.3884C4.98885 17.6588 5.45464 17.75 5.94748 17.75V16.25C5.78415 16.25 5.67611 16.234 5.60983 16.2171C5.54411 16.2004 5.53242 16.1861 5.54658 16.1969C5.56492 16.211 5.59211 16.2408 5.61004 16.2837C5.62632 16.3228 5.62492 16.3484 5.62499 16.3472C5.62513 16.3443 5.62712 16.3233 5.6414 16.2839C5.65535 16.2454 5.67733 16.1997 5.70749 16.151C5.73748 16.1025 5.77159 16.0574 5.80538 16.0198C5.84013 15.981 5.86714 15.9583 5.88007 15.949L4.99895 14.735ZM5.94748 17.75H9.74998V16.25H5.94748V17.75ZM11.6742 7.34056C13.835 7.41488 15.5613 9.27613 15.4919 11.539L16.9912 11.585C17.0849 8.53201 14.7476 5.94538 11.7258 5.84144L11.6742 7.34056ZM15.4932 11.5127C15.3951 13.0024 15.9411 14.4649 16.9931 15.5101L18.0503 14.4459C17.3105 13.711 16.9199 12.6744 16.9899 11.6113L15.4932 11.5127ZM17.0321 15.5461C17.205 15.6951 17.3736 15.8292 17.4836 15.9199L18.4373 14.7621C18.2997 14.6488 18.168 14.5449 18.0113 14.4099L17.0321 15.5461ZM17.5191 15.9474C17.5325 15.9571 17.5599 15.9802 17.5949 16.0193C17.629 16.0573 17.6634 16.1026 17.6937 16.1514C17.7241 16.2004 17.7463 16.2463 17.7604 16.285C17.7748 16.3246 17.7769 16.3457 17.777 16.3485C17.7771 16.3497 17.7756 16.3238 17.792 16.2844C17.81 16.241 17.8375 16.211 17.856 16.1968C17.8702 16.1859 17.8585 16.2002 17.7925 16.217C17.7259 16.234 17.6174 16.25 17.4535 16.25V17.75C17.9468 17.75 18.4132 17.6589 18.7669 17.3885C19.1628 17.0859 19.2954 16.6557 19.2749 16.2693C19.2562 15.9161 19.1151 15.5972 18.9682 15.3604C18.8194 15.1206 18.6202 14.8936 18.4018 14.7346L17.5191 15.9474ZM17.4535 16.25H13.65V17.75H17.4535V16.25ZM12.45 6.591V5H10.95V6.591H12.45ZM9.74998 17.75H13.65V16.25H9.74998V17.75ZM8.99998 17C8.99998 18.5008 10.191 19.75 11.7 19.75V18.25C11.055 18.25 10.5 17.7084 10.5 17H8.99998ZM11.7 19.75C13.2089 19.75 14.4 18.5008 14.4 17H12.9C12.9 17.7084 12.3449 18.25 11.7 18.25V19.75Z"/>
    </symbol>
    <symbol id="three-dots-icon" viewBox="0 0 24 24">
        <path d="M12 16a2 2 0 1 1 0 4 2 2 0 0 1 0-4zm0-6a2 2 0 1 1 0 4 2 2 0 0 1 0-4zm0-6a2 2 0 1 1 0 4 2 2 0 0 1 0-4z"/>
    </symbol>
    <symbol id="icon-users" viewBox="0 0 25 24">
        <path d="M15.3289 11.4955C14.4941 11.4955 13.724 11.2188 13.1051 10.7522C13.3972 10.3301 13.6284 9.86262 13.786 9.36254C14.1827 9.7539 14.7276 9.99545 15.3289 9.99545C16.5422 9.99545 17.5258 9.01185 17.5258 7.79851C17.5258 6.58517 16.5422 5.60156 15.3289 5.60156C14.7276 5.60156 14.1827 5.84312 13.786 6.23449C13.6284 5.73441 13.3972 5.26698 13.1051 4.84488C13.7239 4.37824 14.4941 4.10156 15.3289 4.10156C17.3706 4.10156 19.0258 5.75674 19.0258 7.79851C19.0258 9.84027 17.3706 11.4955 15.3289 11.4955Z"/>
        <path d="M14.7723 13.1891C15.0227 13.437 15.2464 13.6945 15.4463 13.9566C16.7954 13.9826 17.7641 14.3143 18.4675 14.7651C19.2032 15.2366 19.6941 15.8677 20.0242 16.5168C20.3563 17.1698 20.5204 17.8318 20.6002 18.337C20.6398 18.5878 20.6579 18.795 20.6661 18.9365C20.6702 19.0071 20.6717 19.061 20.6724 19.0952L20.6726 19.1161L20.6727 19.1313L20.6727 19.1363L21.4197 19.1486C20.6793 19.1358 20.6728 19.136 20.6727 19.1363L20.6727 19.1376C20.6666 19.5509 20.9961 19.8914 21.4096 19.8985C21.8237 19.9057 22.1653 19.5758 22.1725 19.1617L21.4284 19.1488C22.1725 19.1617 22.1725 19.1621 22.1725 19.1617L22.1725 19.1599L22.1726 19.1575L22.1726 19.1511L22.1727 19.1319C22.1727 19.1163 22.1726 19.0951 22.1721 19.0686C22.1712 19.0158 22.1689 18.9419 22.1636 18.85C22.153 18.6665 22.1303 18.4094 22.0819 18.1029C21.9856 17.4936 21.7848 16.6697 21.3612 15.8368C20.9357 15 20.2801 14.1451 19.2768 13.5022C18.2708 12.8574 16.9604 12.4549 15.274 12.4549C14.8284 12.4549 14.4092 12.483 14.0148 12.5362C14.2852 12.7384 14.5376 12.9566 14.7723 13.1891Z"/>
        <path fill-rule="evenodd" clip-rule="evenodd" d="M5.13173 7.79855C5.13173 5.75678 6.7869 4.1016 8.82867 4.1016C10.8704 4.1016 12.5256 5.75678 12.5256 7.79855C12.5256 9.84031 10.8704 11.4955 8.82867 11.4955C6.7869 11.4955 5.13173 9.84031 5.13173 7.79855ZM8.82867 5.6016C7.61533 5.6016 6.63173 6.58521 6.63173 7.79855C6.63173 9.01189 7.61533 9.99549 8.82867 9.99549C10.042 9.99549 11.0256 9.01189 11.0256 7.79855C11.0256 6.58521 10.042 5.6016 8.82867 5.6016Z"/>
        <path d="M3.37502 19.1374C3.38126 19.5507 3.0517 19.8914 2.63812 19.8986C2.22397 19.9058 1.88241 19.5759 1.87522 19.1617L2.62511 19.1487C1.87522 19.1617 1.87523 19.1621 1.87522 19.1617L1.87519 19.1599L1.87516 19.1575L1.87509 19.1511L1.875 19.1319C1.87499 19.1163 1.87512 19.0951 1.87559 19.0687C1.87653 19.0158 1.87882 18.942 1.88413 18.85C1.89474 18.6665 1.91745 18.4094 1.96585 18.103C2.0621 17.4936 2.26292 16.6697 2.68648 15.8368C3.11206 15 3.76758 14.1452 4.77087 13.5022C5.77688 12.8575 7.08727 12.455 8.77376 12.455C10.4602 12.455 11.7706 12.8575 12.7767 13.5022C13.7799 14.1452 14.4355 15 14.861 15.8368C15.2846 16.6697 15.4854 17.4936 15.5817 18.103C15.6301 18.4094 15.6528 18.6665 15.6634 18.85C15.6687 18.942 15.671 19.0158 15.6719 19.0687C15.6724 19.0951 15.6725 19.1163 15.6725 19.1319L15.6724 19.1511L15.6724 19.1575L15.6723 19.1599C15.6723 19.1603 15.6723 19.1617 14.9282 19.1488L15.6723 19.1617C15.6651 19.5759 15.3235 19.9058 14.9094 19.8986C14.4959 19.8914 14.1664 19.5509 14.1725 19.1376L14.1725 19.1364C14.1726 19.1361 14.1791 19.1358 14.9199 19.1487L14.1725 19.1364L14.1725 19.1314L14.1724 19.1161L14.1722 19.0952C14.1716 19.061 14.17 19.0072 14.1659 18.9366C14.1577 18.7951 14.1396 18.5878 14.1 18.337C14.0202 17.8319 13.8561 17.1699 13.524 16.5168C13.1939 15.8677 12.703 15.2366 11.9673 14.7651C11.2343 14.2954 10.2132 13.955 8.77376 13.955C7.33434 13.955 6.31319 14.2954 5.58022 14.7651C4.84453 15.2366 4.35363 15.8677 4.02351 16.5168C3.6914 17.1699 3.52727 17.8319 3.44749 18.337C3.40787 18.5878 3.38981 18.7951 3.38163 18.9366C3.37756 19.0072 3.37596 19.061 3.37536 19.0952C3.37505 19.1123 3.375 19.1245 3.375 19.1314L3.37502 19.1374Z"/>
    </symbol>
    <symbol id="icon-classes" viewBox="0 0 48 48">
        <defs>
            <style>.a{fill:none;stroke:#000000;stroke-linecap:round;stroke-linejoin:round;}</style>
        </defs>
        <rect class="a" x="4.5" y="8.4" width="39" height="31.2" rx="2"/>
        <rect class="a" x="8.5" y="12.4" width="31" height="23.2" rx="1"/>
        <rect class="a" x="29.68" y="33.41" width="6.62" height="2.19"/>
        <path class="a" d="M25.84,19a2.6,2.6,0,0,0-3.68,0l0,0a2.61,2.61,0,1,0,4.46,1.86A2.54,2.54,0,0,0,25.82,19Z"/>
        <path class="a" d="M22,25.53h4a3,3,0,0,1,3,3v1.21a0,0,0,0,1,0,0H19a0,0,0,0,1,0,0V28.53A3,3,0,0,1,22,25.53Z"/>
        <path class="a" d="M17.42,21.47a2,2,0,0,0-2.84,0l0,0A2,2,0,1,0,18,22.91a2,2,0,0,0-.6-1.43Z"/>
        <path class="a" d="M19.34,27.14a2,2,0,0,0-1.47-.65H14.13a2,2,0,0,0-2,2v1.25H19"/>
        <path class="a" d="M33.42,21.47a2,2,0,0,0-2.84,0l0,0A2,2,0,1,0,34,22.91a2,2,0,0,0-.6-1.43Z"/>
        <path class="a" d="M29,29.74h6.86V28.49a2,2,0,0,0-2-2H30.13a2,2,0,0,0-1.47.65"/>
    </symbol>
    <symbol id="icon-grades" viewBox="0 0 1920 1920">
        <path d="M219.03 0v464.314h-56.515c-31.196 0-56.515 25.299-56.515 56.47 0 31.172 25.319 56.47 56.515 56.47h56.514v338.824h-56.514c-31.196 0-56.515 25.3-56.515 56.471 0 31.172 25.319 56.47 56.515 56.47h56.514v338.824h-56.514c-31.196 0-56.515 25.299-56.515 56.47 0 31.172 25.319 56.471 56.515 56.471h56.514V1920h1582.412V0H219.03Zm960.578 338.824v112.94H671.373v677.648h677.647V734.118h112.94v508.235H558.432v-903.53h621.177Zm207.326 75.817 79.85 79.85-432.452 432.451-224.866-224.979 79.85-79.85 145.016 145.13 352.602-352.602Z" fill-rule="evenodd"/>
    </symbol>
    <symbol id="playground-icon" viewBox="0 0 512.042 512.042">
        <path d="M491.708 469.354c-35.386 0-64-28.614-64-64 0-63.477-46.093-116.081-106.667-126.224v-65.776c18.329 0 28.125-21.588 16.055-35.381L187.763 7.306c-8.499-9.714-23.61-9.714-32.11 0L6.32 177.973c-12.07 13.794-2.274 35.381 16.055 35.381v149.333c0 11.782 9.551 21.333 21.333 21.333v106.667c0 11.782 9.551 21.333 21.333 21.333 11.782 0 21.333-9.551 21.333-21.333V384.021h21.333v106.667c0 11.782 9.551 21.333 21.333 21.333 11.782 0 21.333-9.551 21.333-21.333v-21.333h42.667v21.333c0 11.782 9.551 21.333 21.333 21.333 11.782 0 21.333-9.551 21.333-21.333V384.021h21.333v106.667c0 11.782 9.551 21.333 21.333 21.333 11.782 0 21.333-9.551 21.333-21.333V384.021c11.782 0 21.333-9.551 21.333-21.333v-39.986c36.835 9.456 64 42.838 64 82.653 0 58.95 47.717 106.667 106.667 106.667 11.782 0 21.333-9.551 21.333-21.333S503.49 469.354 491.708 469.354zM171.708 53.751l102.32 116.937H69.389L171.708 53.751zM278.375 213.354v128H65.042v-128h213.333zM193.042 426.687h-42.667v-42.667h42.667v42.667z"/>
    </symbol>
    <symbol id="gradebook-icon" viewBox="0 0 24 24">
        <path d="M19.8978 16H7.89778C6.96781 16 6.50282 16 6.12132 16.1022C5.08604 16.3796 4.2774 17.1883 4 18.2235" stroke="white" stroke-width="1.5"/>
        <path d="M8 7H16" stroke="white" stroke-width="1.5" stroke-linecap="round"/>
        <path d="M8 10.5H13" stroke="white" stroke-width="1.5" stroke-linecap="round"/>
        <path d="M13 16V19.5309C13 19.8065 13 19.9443 12.9051 20C12.8103 20.0557 12.6806 19.9941 12.4211 19.8708L11.1789 19.2808C11.0911 19.2391 11.0472 19.2182 11 19.2182C10.9528 19.2182 10.9089 19.2391 10.8211 19.2808L9.57889 19.8708C9.31943 19.9941 9.18971 20.0557 9.09485 20C9 19.9443 9 19.8065 9 19.5309V16.45" stroke="white" stroke-width="1.5" stroke-linecap="round"/>
        <path d="M10 22C7.17157 22 5.75736 22 4.87868 21.1213C4 20.2426 4 18.8284 4 16V8C4 5.17157 4 3.75736 4.87868 2.87868C5.75736 2 7.17157 2 10 2H14C16.8284 2 18.2426 2 19.1213 2.87868C20 3.75736 20 5.17157 20 8M14 22C16.8284 22 18.2426 22 19.1213 21.1213C20 20.2426 20 18.8284 20 16V12" stroke="white" stroke-width="1.5" stroke-linecap="round"/>
    </symbol>
</svg>
